<mxfile host="Electron" modified="2023-11-12T20:34:04.911Z" agent="Mozilla/5.0 (Windows NT 10.0; Win64; x64) AppleWebKit/537.36 (KHTML, like Gecko) draw.io/22.0.2 Chrome/114.0.5735.289 Electron/25.8.4 Safari/537.36" etag="OOBGbDF9F3qaGcceupSQ" version="22.0.2" type="device">
  <diagram name="Page-1" id="H2FOLK643TPE5QBh98ee">
    <mxGraphModel dx="1184" dy="713" grid="1" gridSize="10" guides="1" tooltips="1" connect="1" arrows="1" fold="1" page="1" pageScale="1" pageWidth="850" pageHeight="1100" math="0" shadow="0">
      <root>
        <mxCell id="0" />
        <mxCell id="1" parent="0" />
        <mxCell id="lQDMYS4VdhFnoV8wPL4G-13" style="edgeStyle=orthogonalEdgeStyle;rounded=0;orthogonalLoop=1;jettySize=auto;html=1;entryX=0;entryY=0.5;entryDx=0;entryDy=0;" edge="1" parent="1" source="lQDMYS4VdhFnoV8wPL4G-1" target="lQDMYS4VdhFnoV8wPL4G-12">
          <mxGeometry relative="1" as="geometry" />
        </mxCell>
        <mxCell id="lQDMYS4VdhFnoV8wPL4G-1" value="Customer" style="shape=umlActor;verticalLabelPosition=bottom;verticalAlign=top;html=1;outlineConnect=0;" vertex="1" parent="1">
          <mxGeometry x="80" y="130" width="30" height="60" as="geometry" />
        </mxCell>
        <mxCell id="lQDMYS4VdhFnoV8wPL4G-4" value="Customer Support" style="shape=umlActor;verticalLabelPosition=bottom;verticalAlign=top;html=1;outlineConnect=0;" vertex="1" parent="1">
          <mxGeometry x="120" y="1510" width="30" height="60" as="geometry" />
        </mxCell>
        <mxCell id="lQDMYS4VdhFnoV8wPL4G-6" value="Warehouse Staff" style="shape=umlActor;verticalLabelPosition=bottom;verticalAlign=top;html=1;outlineConnect=0;" vertex="1" parent="1">
          <mxGeometry x="260" y="1730" width="30" height="60" as="geometry" />
        </mxCell>
        <mxCell id="lQDMYS4VdhFnoV8wPL4G-7" value="Management" style="shape=umlActor;verticalLabelPosition=bottom;verticalAlign=top;html=1;outlineConnect=0;" vertex="1" parent="1">
          <mxGeometry x="120" y="1600" width="30" height="60" as="geometry" />
        </mxCell>
        <mxCell id="lQDMYS4VdhFnoV8wPL4G-8" value="Admin" style="shape=umlActor;verticalLabelPosition=bottom;verticalAlign=top;html=1;outlineConnect=0;" vertex="1" parent="1">
          <mxGeometry x="120" y="1710" width="30" height="60" as="geometry" />
        </mxCell>
        <mxCell id="lQDMYS4VdhFnoV8wPL4G-9" value="HR Staff" style="shape=umlActor;verticalLabelPosition=bottom;verticalAlign=top;html=1;outlineConnect=0;" vertex="1" parent="1">
          <mxGeometry x="310" y="1560" width="30" height="60" as="geometry" />
        </mxCell>
        <mxCell id="lQDMYS4VdhFnoV8wPL4G-12" value="Browse Products" style="ellipse;whiteSpace=wrap;html=1;" vertex="1" parent="1">
          <mxGeometry x="250" y="120" width="120" height="80" as="geometry" />
        </mxCell>
        <mxCell id="lQDMYS4VdhFnoV8wPL4G-14" value="View&amp;nbsp;Products" style="ellipse;whiteSpace=wrap;html=1;" vertex="1" parent="1">
          <mxGeometry x="520" y="40" width="120" height="80" as="geometry" />
        </mxCell>
        <mxCell id="lQDMYS4VdhFnoV8wPL4G-16" value="Explore Products" style="ellipse;whiteSpace=wrap;html=1;" vertex="1" parent="1">
          <mxGeometry x="520" y="200" width="120" height="80" as="geometry" />
        </mxCell>
        <mxCell id="lQDMYS4VdhFnoV8wPL4G-18" value="" style="endArrow=block;dashed=1;endFill=0;endSize=12;html=1;rounded=0;exitX=1;exitY=0.5;exitDx=0;exitDy=0;entryX=0;entryY=0.5;entryDx=0;entryDy=0;" edge="1" parent="1" target="lQDMYS4VdhFnoV8wPL4G-16">
          <mxGeometry width="160" relative="1" as="geometry">
            <mxPoint x="370" y="159.66" as="sourcePoint" />
            <mxPoint x="510" y="159.66" as="targetPoint" />
          </mxGeometry>
        </mxCell>
        <mxCell id="lQDMYS4VdhFnoV8wPL4G-20" value="&amp;lt;&amp;lt;Include&amp;gt;&amp;gt;" style="edgeLabel;html=1;align=center;verticalAlign=middle;resizable=0;points=[];" vertex="1" connectable="0" parent="lQDMYS4VdhFnoV8wPL4G-18">
          <mxGeometry x="-0.2167" y="1" relative="1" as="geometry">
            <mxPoint x="15" y="-9" as="offset" />
          </mxGeometry>
        </mxCell>
        <mxCell id="lQDMYS4VdhFnoV8wPL4G-21" value="" style="endArrow=block;dashed=1;endFill=0;endSize=12;html=1;rounded=0;exitX=1;exitY=0.5;exitDx=0;exitDy=0;entryX=0;entryY=0.5;entryDx=0;entryDy=0;" edge="1" parent="1" source="lQDMYS4VdhFnoV8wPL4G-12" target="lQDMYS4VdhFnoV8wPL4G-14">
          <mxGeometry width="160" relative="1" as="geometry">
            <mxPoint x="390" y="70" as="sourcePoint" />
            <mxPoint x="530" y="70" as="targetPoint" />
          </mxGeometry>
        </mxCell>
        <mxCell id="lQDMYS4VdhFnoV8wPL4G-22" value="&amp;lt;&amp;lt;Include&amp;gt;&amp;gt;" style="edgeLabel;html=1;align=center;verticalAlign=middle;resizable=0;points=[];" vertex="1" connectable="0" parent="lQDMYS4VdhFnoV8wPL4G-21">
          <mxGeometry x="-0.2167" y="1" relative="1" as="geometry">
            <mxPoint x="15" y="-9" as="offset" />
          </mxGeometry>
        </mxCell>
        <mxCell id="lQDMYS4VdhFnoV8wPL4G-23" style="rounded=0;orthogonalLoop=1;jettySize=auto;html=1;entryX=0;entryY=0.5;entryDx=0;entryDy=0;" edge="1" parent="1" source="lQDMYS4VdhFnoV8wPL4G-1" target="lQDMYS4VdhFnoV8wPL4G-34">
          <mxGeometry relative="1" as="geometry">
            <mxPoint x="70" y="309.9980645161287" as="sourcePoint" />
            <mxPoint x="210.00000000000205" y="517.74" as="targetPoint" />
          </mxGeometry>
        </mxCell>
        <mxCell id="lQDMYS4VdhFnoV8wPL4G-25" value="Purchase Products" style="ellipse;whiteSpace=wrap;html=1;" vertex="1" parent="1">
          <mxGeometry x="250" y="350" width="120" height="80" as="geometry" />
        </mxCell>
        <mxCell id="lQDMYS4VdhFnoV8wPL4G-26" value="Buy Products" style="ellipse;whiteSpace=wrap;html=1;" vertex="1" parent="1">
          <mxGeometry x="520" y="350" width="120" height="80" as="geometry" />
        </mxCell>
        <mxCell id="lQDMYS4VdhFnoV8wPL4G-30" value="" style="endArrow=block;dashed=1;endFill=0;endSize=12;html=1;rounded=0;exitX=1;exitY=0.5;exitDx=0;exitDy=0;entryX=0;entryY=0.5;entryDx=0;entryDy=0;" edge="1" parent="1" source="lQDMYS4VdhFnoV8wPL4G-25" target="lQDMYS4VdhFnoV8wPL4G-26">
          <mxGeometry width="160" relative="1" as="geometry">
            <mxPoint x="390" y="300" as="sourcePoint" />
            <mxPoint x="530" y="300" as="targetPoint" />
          </mxGeometry>
        </mxCell>
        <mxCell id="lQDMYS4VdhFnoV8wPL4G-31" value="&amp;lt;&amp;lt;Include&amp;gt;&amp;gt;" style="edgeLabel;html=1;align=center;verticalAlign=middle;resizable=0;points=[];" vertex="1" connectable="0" parent="lQDMYS4VdhFnoV8wPL4G-30">
          <mxGeometry x="-0.2167" y="1" relative="1" as="geometry">
            <mxPoint x="15" y="-9" as="offset" />
          </mxGeometry>
        </mxCell>
        <mxCell id="lQDMYS4VdhFnoV8wPL4G-32" value="" style="endArrow=block;dashed=1;endFill=0;endSize=12;html=1;rounded=0;exitX=0.5;exitY=0;exitDx=0;exitDy=0;entryX=0.5;entryY=1;entryDx=0;entryDy=0;" edge="1" parent="1" source="lQDMYS4VdhFnoV8wPL4G-25" target="lQDMYS4VdhFnoV8wPL4G-12">
          <mxGeometry width="160" relative="1" as="geometry">
            <mxPoint x="320" y="470" as="sourcePoint" />
            <mxPoint x="470" y="470" as="targetPoint" />
          </mxGeometry>
        </mxCell>
        <mxCell id="lQDMYS4VdhFnoV8wPL4G-33" value="&amp;lt;&amp;lt;Include&amp;gt;&amp;gt;" style="edgeLabel;html=1;align=center;verticalAlign=middle;resizable=0;points=[];" vertex="1" connectable="0" parent="lQDMYS4VdhFnoV8wPL4G-32">
          <mxGeometry x="-0.2167" y="1" relative="1" as="geometry">
            <mxPoint x="15" y="-9" as="offset" />
          </mxGeometry>
        </mxCell>
        <mxCell id="lQDMYS4VdhFnoV8wPL4G-34" value="Manage Shopping Cart" style="ellipse;whiteSpace=wrap;html=1;" vertex="1" parent="1">
          <mxGeometry x="250" y="510" width="120" height="80" as="geometry" />
        </mxCell>
        <mxCell id="lQDMYS4VdhFnoV8wPL4G-35" value="Add Products" style="ellipse;whiteSpace=wrap;html=1;" vertex="1" parent="1">
          <mxGeometry x="510" y="510" width="120" height="80" as="geometry" />
        </mxCell>
        <mxCell id="lQDMYS4VdhFnoV8wPL4G-36" value="" style="endArrow=block;dashed=1;endFill=0;endSize=12;html=1;rounded=0;exitX=1;exitY=0.5;exitDx=0;exitDy=0;entryX=0;entryY=0.5;entryDx=0;entryDy=0;" edge="1" parent="1" source="lQDMYS4VdhFnoV8wPL4G-34" target="lQDMYS4VdhFnoV8wPL4G-35">
          <mxGeometry width="160" relative="1" as="geometry">
            <mxPoint x="390" y="460" as="sourcePoint" />
            <mxPoint x="530" y="460" as="targetPoint" />
          </mxGeometry>
        </mxCell>
        <mxCell id="lQDMYS4VdhFnoV8wPL4G-37" value="&amp;lt;&amp;lt;Include&amp;gt;&amp;gt;" style="edgeLabel;html=1;align=center;verticalAlign=middle;resizable=0;points=[];" vertex="1" connectable="0" parent="lQDMYS4VdhFnoV8wPL4G-36">
          <mxGeometry x="-0.2167" y="1" relative="1" as="geometry">
            <mxPoint x="15" y="-9" as="offset" />
          </mxGeometry>
        </mxCell>
        <mxCell id="lQDMYS4VdhFnoV8wPL4G-42" style="rounded=0;orthogonalLoop=1;jettySize=auto;html=1;entryX=0;entryY=0;entryDx=0;entryDy=0;" edge="1" parent="1" target="lQDMYS4VdhFnoV8wPL4G-25">
          <mxGeometry relative="1" as="geometry">
            <mxPoint x="120" y="192" as="sourcePoint" />
            <mxPoint x="260" y="400" as="targetPoint" />
          </mxGeometry>
        </mxCell>
        <mxCell id="lQDMYS4VdhFnoV8wPL4G-43" value="Modify Products" style="ellipse;whiteSpace=wrap;html=1;" vertex="1" parent="1">
          <mxGeometry x="510" y="610" width="120" height="80" as="geometry" />
        </mxCell>
        <mxCell id="lQDMYS4VdhFnoV8wPL4G-44" value="" style="endArrow=block;dashed=1;endFill=0;endSize=12;html=1;rounded=0;exitX=1;exitY=0.5;exitDx=0;exitDy=0;entryX=0;entryY=0.5;entryDx=0;entryDy=0;" edge="1" parent="1" target="lQDMYS4VdhFnoV8wPL4G-43" source="lQDMYS4VdhFnoV8wPL4G-34">
          <mxGeometry width="160" relative="1" as="geometry">
            <mxPoint x="370" y="650" as="sourcePoint" />
            <mxPoint x="530" y="560" as="targetPoint" />
          </mxGeometry>
        </mxCell>
        <mxCell id="lQDMYS4VdhFnoV8wPL4G-45" value="&amp;lt;&amp;lt;Include&amp;gt;&amp;gt;" style="edgeLabel;html=1;align=center;verticalAlign=middle;resizable=0;points=[];" vertex="1" connectable="0" parent="lQDMYS4VdhFnoV8wPL4G-44">
          <mxGeometry x="-0.2167" y="1" relative="1" as="geometry">
            <mxPoint x="15" y="-9" as="offset" />
          </mxGeometry>
        </mxCell>
        <mxCell id="lQDMYS4VdhFnoV8wPL4G-46" value="Remove Products" style="ellipse;whiteSpace=wrap;html=1;" vertex="1" parent="1">
          <mxGeometry x="510" y="730" width="120" height="80" as="geometry" />
        </mxCell>
        <mxCell id="lQDMYS4VdhFnoV8wPL4G-47" value="" style="endArrow=block;dashed=1;endFill=0;endSize=12;html=1;rounded=0;exitX=1;exitY=0.5;exitDx=0;exitDy=0;entryX=0;entryY=0.5;entryDx=0;entryDy=0;" edge="1" parent="1" target="lQDMYS4VdhFnoV8wPL4G-46" source="lQDMYS4VdhFnoV8wPL4G-34">
          <mxGeometry width="160" relative="1" as="geometry">
            <mxPoint x="370" y="770" as="sourcePoint" />
            <mxPoint x="530" y="680" as="targetPoint" />
          </mxGeometry>
        </mxCell>
        <mxCell id="lQDMYS4VdhFnoV8wPL4G-48" value="&amp;lt;&amp;lt;Include&amp;gt;&amp;gt;" style="edgeLabel;html=1;align=center;verticalAlign=middle;resizable=0;points=[];" vertex="1" connectable="0" parent="lQDMYS4VdhFnoV8wPL4G-47">
          <mxGeometry x="-0.2167" y="1" relative="1" as="geometry">
            <mxPoint x="15" y="-9" as="offset" />
          </mxGeometry>
        </mxCell>
        <mxCell id="lQDMYS4VdhFnoV8wPL4G-51" value="" style="endArrow=block;startArrow=block;endFill=1;startFill=1;html=1;rounded=0;exitX=0.5;exitY=0;exitDx=0;exitDy=0;entryX=0.5;entryY=1;entryDx=0;entryDy=0;dashed=1;" edge="1" parent="1" source="lQDMYS4VdhFnoV8wPL4G-34" target="lQDMYS4VdhFnoV8wPL4G-25">
          <mxGeometry width="160" relative="1" as="geometry">
            <mxPoint x="370" y="470" as="sourcePoint" />
            <mxPoint x="530" y="470" as="targetPoint" />
          </mxGeometry>
        </mxCell>
      </root>
    </mxGraphModel>
  </diagram>
</mxfile>
